<?xml version="1.0" encoding="UTF-8" standalone="no"?>
<!DOCTYPE svg PUBLIC "-//W3C//DTD SVG 1.1//EN" "http://www.w3.org/Graphics/SVG/1.1/DTD/svg11.dtd">
<svg width="100%" height="100%" viewBox="0 0 512 512" version="1.1" xmlns="http://www.w3.org/2000/svg" xmlns:xlink="http://www.w3.org/1999/xlink" xml:space="preserve" xmlns:serif="http://www.serif.com/" style="fill-rule:evenodd;clip-rule:evenodd;stroke-linecap:round;stroke-linejoin:round;stroke-miterlimit:1.5;">
    <rect x="0" y="339.875" width="512" height="172.125" style="fill:rgb(241,240,255);"/>
    <g transform="matrix(1,0,0,1,-3.21687,67.0439)">
        <path d="M513.335,279.364C455.927,279.364 431.562,296.052 352.125,296.052C272.688,296.052 219.953,280.699 164.881,280.699C109.81,280.699 79.103,295.571 0,295.571C-30.707,295.571 -30.707,242.316 0,242.316C79.103,242.316 108.475,227.63 163.546,227.63C218.618,227.63 271.353,242.983 350.79,242.983C430.227,242.983 454.592,226.295 512,226.295C550.383,226.295 551.718,279.364 513.335,279.364Z" style="fill:rgb(255,253,240);stroke:black;stroke-width:8.86px;"/>
    </g>
    <g transform="matrix(1.22697,0,0,1.22697,-16.6306,17.8639)">
        <path d="M175.228,357.132C190.915,333.434 197.591,283.035 197.591,248.657C197.591,214.279 196.848,210.374 181.495,182.004C166.141,153.633 146.078,154.436 146.078,112.048C146.078,69.659 179.091,27.032 224.15,27.032C269.208,27.032 298.317,72.416 298.317,109.13C298.317,145.845 274.372,158.741 257.337,182.301C240.301,205.86 237.643,222.623 237.643,248.657C237.643,274.691 238.31,342.112 257.335,361.137" style="fill:white;stroke:black;stroke-width:12.33px;"/>
    </g>
</svg>
