<?xml version="1.0" standalone="no"?>
<!DOCTYPE svg PUBLIC "-//W3C//DTD SVG 20010904//EN"
 "http://www.w3.org/TR/2001/REC-SVG-20010904/DTD/svg10.dtd">
<svg version="1.0" xmlns="http://www.w3.org/2000/svg"
 width="512.000000pt" height="512.000000pt" viewBox="0 0 512.000000 512.000000"
 preserveAspectRatio="xMidYMid meet">
<metadata>
Created by potrace 1.14, written by Peter Selinger 2001-2017
</metadata>
<g transform="translate(0.000000,512.000000) scale(0.100000,-0.100000)"
fill="#000000" stroke="none">
<path d="M2499 4678 c-573 -43 -1023 -655 -938 -1275 26 -196 75 -291 246
-483 116 -129 161 -196 252 -378 70 -138 111 -260 111 -329 0 -38 -5 -39 -125
-23 -38 5 -154 14 -256 20 -243 14 -447 1 -808 -51 -152 -21 -334 -46 -406
-54 -120 -14 -449 -35 -537 -35 l-38 0 0 -45 c0 -29 4 -45 13 -45 6 0 104 5
217 10 242 12 392 28 750 80 367 54 559 66 808 51 108 -7 240 -18 292 -24 l95
-12 2 -205 c2 -113 -1 -211 -6 -219 -7 -11 -26 -11 -107 -2 -356 41 -637 32
-1099 -34 -435 -62 -668 -85 -867 -85 l-98 0 0 -45 0 -45 79 0 c207 0 500 29
921 90 345 51 561 64 802 50 166 -9 326 -25 354 -34 7 -3 7 -36 -2 -113 -40
-347 -113 -625 -210 -800 -47 -84 -45 -122 6 -148 64 -33 113 21 186 200 72
177 127 407 164 685 16 115 23 234 27 457 8 441 -5 519 -133 775 -88 176 -151
270 -269 403 -163 183 -195 248 -217 434 -35 296 80 618 297 835 303 303 753
330 1062 63 237 -203 380 -551 345 -835 -25 -203 -80 -300 -333 -583 -274
-308 -376 -530 -398 -867 -11 -158 0 -639 19 -817 40 -389 104 -620 211 -755
35 -44 44 -50 78 -50 80 0 97 67 37 148 -71 98 -121 259 -155 504 -11 79 -23
198 -27 266 l-7 123 34 -5 c89 -15 367 -27 617 -27 373 1 542 17 1022 101 207
36 413 60 528 60 l82 0 0 45 0 45 -59 0 c-129 0 -329 -23 -611 -70 -387 -65
-514 -80 -759 -90 -246 -10 -624 2 -818 26 l-43 5 0 220 0 220 43 -5 c214 -29
767 -35 1027 -11 163 15 337 40 620 90 192 34 383 55 503 55 l97 0 0 45 0 45
-77 0 c-160 0 -335 -21 -668 -80 -359 -64 -558 -81 -910 -81 -236 0 -540 13
-606 27 -25 5 -27 8 -22 47 29 241 136 441 388 722 96 107 150 174 193 236
194 287 200 664 15 1021 -197 382 -541 586 -934 556z"/>
</g>
</svg>
